<?xml version="1.0" standalone="no"?>
<!DOCTYPE svg PUBLIC "-//W3C//DTD SVG 20010904//EN"
 "http://www.w3.org/TR/2001/REC-SVG-20010904/DTD/svg10.dtd">
<svg version="1.0" xmlns="http://www.w3.org/2000/svg"
 width="640.000000pt" height="300.000000pt" viewBox="0 0 640.000000 300.000000"
 preserveAspectRatio="xMidYMid meet">

<g transform="translate(0.000000,300.000000) scale(0.100000,-0.100000)"
fill="#000000" stroke="none">
<path d="M5826 2968 c-8 -13 -19 -41 -25 -63 -5 -22 -30 -89 -55 -148 -86
-205 -179 -522 -246 -842 -42 -203 -60 -354 -60 -510 0 -125 1 -133 23 -153
32 -30 81 -29 112 3 22 21 25 33 25 99 0 117 17 213 82 466 141 551 208 832
218 917 12 101 1 230 -22 244 -22 14 -37 10 -52 -13z"/>
<path d="M1747 2854 c-43 -8 -126 -30 -184 -50 -210 -70 -347 -154 -489 -299
-113 -115 -178 -207 -217 -306 -91 -229 -17 -289 408 -329 368 -34 624 -111
733 -220 49 -50 119 -163 138 -227 24 -75 20 -233 -6 -318 -85 -271 -265 -510
-499 -663 -204 -133 -337 -183 -548 -204 -307 -31 -490 85 -524 332 -12 82 4
160 48 244 42 79 213 244 306 295 42 24 84 52 92 64 33 47 3 119 -54 132 -89
19 -426 -240 -521 -400 -112 -190 -108 -436 10 -613 84 -125 207 -212 350
-248 99 -25 362 -15 490 19 134 35 234 76 337 137 216 130 278 179 399 318
103 118 160 208 222 351 86 199 111 328 92 474 -14 113 -44 196 -111 303 -95
152 -200 228 -410 298 -143 48 -241 64 -474 76 -223 12 -354 25 -367 38 -42
42 153 289 337 428 83 63 302 171 419 208 202 63 392 59 455 -8 20 -21 23 -32
17 -66 -9 -57 -69 -173 -126 -245 -55 -69 -221 -233 -265 -261 -37 -23 -45
-33 -38 -51 16 -42 114 22 274 178 97 95 111 113 158 209 53 109 74 184 64
234 -3 16 -26 49 -50 74 -98 97 -266 132 -466 96z"/>
<path d="M3675 2617 c-56 -59 -100 -167 -186 -457 -131 -443 -198 -630 -318
-889 -69 -151 -144 -280 -195 -338 -29 -34 -63 -42 -84 -21 -25 25 -10 150 42
349 13 52 36 151 51 220 14 68 36 157 47 197 20 68 20 74 5 90 -15 14 -21 15
-38 4 -18 -12 -25 -9 -60 22 -34 31 -46 36 -89 36 -67 0 -118 -27 -198 -104
-202 -193 -286 -373 -285 -611 0 -144 30 -191 128 -202 74 -9 140 21 216 99
l66 67 5 -75 c5 -80 19 -109 71 -148 37 -27 124 -33 167 -11 60 31 127 87 165
137 21 27 39 47 40 46 1 -2 -4 -50 -12 -108 -19 -140 -14 -363 10 -407 25 -48
65 -74 105 -71 45 4 61 28 43 62 -33 61 21 345 269 1406 38 162 76 334 85 381
9 48 27 122 41 165 14 44 28 100 31 125 5 40 3 48 -18 63 -37 25 -59 19 -104
-27z m-753 -889 c25 -31 25 -34 11 -63 -9 -16 -31 -74 -49 -128 -43 -128 -118
-269 -249 -470 -51 -78 -97 -104 -150 -87 -43 14 -50 37 -42 129 6 65 60 238
98 313 31 61 157 250 192 287 64 70 141 77 189 19z"/>
<path d="M4281 1739 c-79 -15 -169 -65 -232 -128 -100 -100 -135 -202 -184
-526 -30 -198 -33 -211 -48 -196 -9 9 -1 255 21 583 4 59 6 112 4 118 -4 10
-52 15 -52 5 0 -3 -9 -85 -20 -183 -13 -113 -21 -242 -21 -357 0 -160 2 -182
19 -205 11 -14 31 -29 45 -34 54 -19 81 34 147 284 42 157 100 331 132 394 27
53 104 134 153 159 26 14 67 23 119 26 61 5 81 10 90 24 25 41 -59 58 -173 36z"/>
<path d="M4437 1596 c-20 -7 -52 -25 -70 -39 -78 -59 -138 -246 -141 -432 -1
-86 2 -106 22 -142 56 -106 211 -141 367 -82 92 34 193 110 321 241 192 196
230 271 162 321 -42 31 -73 15 -128 -67 -57 -83 -234 -264 -304 -310 -176
-116 -312 -138 -346 -55 -13 30 -10 232 3 245 3 3 18 -2 34 -13 49 -33 82 -43
145 -43 77 0 135 28 193 93 95 105 74 221 -49 272 -54 23 -162 29 -209 11z
m186 -70 c66 -27 84 -74 53 -134 -50 -95 -166 -137 -262 -93 -50 23 -59 35
-39 51 20 16 19 40 -1 55 -15 10 -14 15 5 54 30 59 71 81 149 81 34 0 77 -6
95 -14z"/>
<path d="M5510 455 c-6 -8 -9 -23 -5 -34 12 -40 75 -37 75 3 0 42 -45 62 -70
31z"/>
</g>
</svg>
