<?xml version="1.0" standalone="no"?>
<!DOCTYPE svg PUBLIC "-//W3C//DTD SVG 20010904//EN"
 "http://www.w3.org/TR/2001/REC-SVG-20010904/DTD/svg10.dtd">
<svg version="1.0" xmlns="http://www.w3.org/2000/svg"
 width="578.000000pt" height="240.000000pt" viewBox="0 0 578.000000 240.000000"
 preserveAspectRatio="xMidYMid meet">

<g transform="translate(0.000000,240.000000) scale(0.100000,-0.100000)"
fill="#000000" stroke="none">
<path d="M1796 2297 c-33 -43 -39 -61 -80 -229 -46 -187 -61 -263 -86 -438
l-22 -145 -95 -190 c-177 -353 -317 -581 -457 -743 -127 -147 -148 -168 -276
-271 -132 -106 -188 -132 -298 -139 -105 -6 -154 11 -215 77 -103 110 -142
249 -141 506 0 179 14 281 60 465 92 365 218 614 409 806 166 167 270 223 388
209 126 -14 176 -46 256 -165 75 -113 89 -172 72 -309 -12 -94 -64 -267 -103
-346 -29 -56 -142 -211 -197 -268 -59 -63 -170 -154 -243 -201 -60 -38 -74
-67 -40 -85 32 -17 114 34 271 169 73 63 231 261 272 343 69 135 119 333 119
473 0 104 -20 167 -86 264 -101 151 -202 206 -367 199 -115 -5 -196 -47 -337
-172 -123 -110 -254 -284 -326 -435 -96 -200 -191 -535 -215 -752 -14 -131 -6
-380 15 -480 34 -155 128 -295 232 -346 116 -57 282 -38 414 48 150 97 415
361 514 512 92 141 129 202 195 319 40 70 86 157 102 192 49 108 48 102 -6
-215 -39 -222 -49 -293 -70 -475 -8 -72 -22 -154 -30 -183 -17 -56 -14 -87 10
-96 28 -10 44 6 60 61 9 30 53 136 99 236 45 100 95 213 111 250 15 37 44 94
65 125 56 87 216 222 282 237 25 6 27 4 34 -30 5 -28 -6 -86 -47 -243 -51
-195 -54 -214 -54 -328 0 -117 1 -122 28 -157 94 -123 253 -75 425 128 l42 50
0 -30 c0 -16 -5 -70 -10 -118 -5 -49 -7 -94 -4 -102 8 -19 33 -26 54 -15 14 8
19 27 24 102 19 273 29 358 46 413 34 103 60 237 60 308 0 62 -2 68 -25 79
-57 26 -84 -42 -110 -277 -19 -170 -45 -241 -128 -350 -59 -78 -89 -106 -161
-149 -75 -45 -99 -45 -143 -1 l-36 36 6 92 c3 54 19 142 37 212 65 247 72 279
68 342 -3 49 -9 68 -28 88 -30 32 -86 33 -147 3 -77 -39 -216 -161 -266 -235
-42 -61 -62 -103 -140 -290 -12 -29 -25 -53 -29 -53 -8 0 -6 15 38 275 19 110
48 291 65 402 27 183 34 212 73 300 24 54 73 186 110 293 66 194 66 196 66
305 0 92 -3 115 -20 143 -25 41 -52 41 -84 -1z m4 -312 c-16 -57 -37 -118 -46
-137 l-15 -33 6 40 c6 42 61 276 73 310 5 14 8 5 10 -28 2 -33 -7 -83 -28
-152z"/>
<path d="M2762 1628 c-32 -32 2 -87 40 -67 31 17 17 79 -17 79 -6 0 -16 -5
-23 -12z"/>
<path d="M3639 1552 c-213 -71 -290 -194 -248 -394 16 -71 44 -134 133 -291
109 -191 126 -277 80 -410 -19 -55 -90 -138 -148 -172 -56 -33 -160 -50 -214
-36 -62 17 -123 69 -156 134 -24 47 -29 71 -33 149 -4 84 -2 97 19 133 13 22
41 51 61 64 30 20 37 30 35 50 -8 65 -111 15 -161 -77 -68 -125 -33 -332 74
-439 63 -64 129 -93 210 -93 232 0 409 179 409 414 0 98 -26 179 -96 296 -31
52 -75 133 -97 179 -36 74 -41 94 -45 171 -3 69 -1 95 13 124 47 99 248 164
388 125 46 -12 107 -64 107 -91 0 -53 61 -83 75 -37 21 65 -49 161 -141 193
-76 26 -198 30 -265 8z"/>
<path d="M4521 1173 c-10 -21 -35 -92 -56 -158 -54 -174 -179 -485 -190 -473
-1 1 1 26 5 53 5 28 9 93 9 145 1 84 -2 102 -28 155 -34 74 -103 137 -166 155
-82 23 -153 -14 -220 -113 -18 -27 -44 -54 -56 -61 -36 -18 -57 -65 -68 -156
-22 -172 -5 -311 45 -377 45 -59 95 -78 204 -78 172 1 248 58 359 270 l42 80
-6 -50 c-3 -27 -10 -117 -15 -199 -10 -150 -6 -176 25 -176 16 0 45 33 45 52
0 9 16 74 35 145 97 351 238 643 311 643 23 0 17 -88 -16 -273 -57 -318 -32
-469 87 -508 57 -19 97 -4 167 61 l63 60 18 -39 c33 -73 105 -121 183 -121 74
0 240 108 310 202 92 122 132 239 132 385 0 196 -84 303 -238 303 -67 0 -118
-19 -169 -63 -95 -85 -123 -177 -53 -177 5 0 26 25 46 56 53 79 99 107 176
107 74 -1 103 -20 137 -88 72 -142 14 -374 -129 -515 -132 -131 -234 -164
-299 -99 -30 29 -31 34 -31 119 0 54 8 121 20 172 11 46 23 113 26 149 6 61 5
68 -14 78 -48 26 -67 -9 -88 -163 -19 -138 -60 -232 -135 -306 -61 -61 -94
-66 -133 -20 -47 57 -46 154 9 460 30 169 28 238 -10 276 -13 13 -34 24 -47
24 -38 -1 -102 -35 -132 -70 -30 -36 -136 -241 -156 -303 -22 -68 -22 -32 0
119 15 99 31 172 51 221 32 81 35 103 17 121 -22 22 -47 13 -67 -25z m-381
-239 c73 -68 87 -120 72 -262 -23 -223 -94 -332 -217 -332 -95 0 -149 45 -160
135 -12 92 24 291 60 335 7 8 15 27 19 41 3 15 26 50 52 78 40 45 50 51 85 51
34 0 48 -7 89 -46z"/>
</g>
</svg>
