<?xml version="1.0" standalone="no"?>
<!DOCTYPE svg PUBLIC "-//W3C//DTD SVG 20010904//EN"
 "http://www.w3.org/TR/2001/REC-SVG-20010904/DTD/svg10.dtd">
<svg version="1.0" xmlns="http://www.w3.org/2000/svg"
 width="617.000000pt" height="163.000000pt" viewBox="0 0 617.000000 163.000000"
 preserveAspectRatio="xMidYMid meet">

<g transform="translate(0.000000,163.000000) scale(0.100000,-0.100000)"
fill="#000000" stroke="none">
<path d="M639 1582 c-96 -36 -153 -77 -270 -200 -78 -81 -106 -120 -165 -227
-86 -157 -126 -258 -153 -392 -26 -125 -28 -320 -6 -408 19 -72 74 -192 111
-241 73 -96 255 -132 384 -76 75 32 313 240 398 347 l32 40 -6 -77 c-8 -91 9
-148 56 -193 25 -24 39 -29 84 -29 48 -1 61 4 113 40 32 23 89 80 128 128 l70
87 7 -48 c4 -25 15 -58 26 -72 39 -52 136 -64 217 -25 41 19 138 108 168 154
15 24 16 21 17 -80 0 -113 12 -153 46 -158 35 -5 45 21 55 150 23 274 58 396
131 452 44 33 136 65 211 73 l57 6 0 -89 c0 -49 -7 -143 -15 -209 -26 -219
-30 -319 -12 -333 9 -8 26 -12 39 -10 22 3 24 10 35 123 16 156 48 315 75 371
13 29 36 56 61 72 36 24 52 28 154 32 62 3 113 2 113 -3 0 -4 -6 -49 -14 -100
-23 -148 -49 -405 -43 -421 9 -22 54 -20 65 1 5 10 15 72 21 138 7 66 22 179
33 250 29 179 29 199 0 203 -13 2 -29 -2 -37 -8 -11 -9 -18 -8 -31 5 -14 14
-34 16 -118 13 -84 -2 -111 -8 -157 -29 l-57 -27 -26 54 -27 54 -57 -6 c-110
-12 -197 -34 -264 -67 l-67 -33 2 44 c1 33 -3 47 -18 58 -47 35 -70 1 -96
-143 -22 -117 -45 -175 -120 -299 -72 -120 -150 -184 -223 -184 -49 0 -66 21
-66 81 0 110 21 192 86 342 66 150 74 190 43 210 -43 27 -118 -90 -155 -238
-11 -45 -40 -109 -82 -180 -118 -205 -253 -334 -311 -298 -34 21 -42 55 -36
149 9 147 37 237 126 404 83 154 101 209 79 235 -33 39 -78 0 -138 -120 -22
-45 -52 -117 -67 -160 -42 -127 -162 -293 -307 -425 -194 -178 -244 -206 -355
-198 -88 6 -139 33 -180 95 -71 106 -93 190 -93 358 0 205 39 344 156 562 63
116 79 138 184 244 104 105 122 119 192 148 145 59 237 36 292 -74 26 -52 30
-73 34 -162 5 -129 -17 -201 -93 -301 -58 -76 -195 -185 -286 -228 -63 -30
-75 -45 -59 -75 15 -26 37 -24 106 11 140 70 293 211 357 328 108 199 58 502
-97 581 -74 38 -159 39 -257 3z"/>
<path d="M4413 1300 c-68 -41 -114 -140 -234 -500 -102 -307 -139 -439 -139
-501 0 -44 -32 -69 -96 -77 -58 -6 -84 20 -84 86 1 86 19 178 49 243 40 87 46
122 26 143 -9 9 -23 16 -31 16 -17 0 -48 -48 -71 -110 -40 -112 -98 -230 -147
-304 -66 -100 -96 -129 -128 -124 -19 2 -24 10 -26 41 -4 49 33 244 59 310 28
69 69 225 69 259 0 30 -28 52 -54 42 -22 -9 -42 -57 -76 -194 -41 -161 -75
-227 -168 -317 -144 -141 -277 -165 -312 -58 -25 77 31 332 104 470 39 74 143
185 173 185 31 0 37 -15 43 -105 5 -76 6 -80 29 -83 36 -6 51 22 51 95 0 107
-45 173 -118 173 -109 0 -258 -198 -328 -435 -23 -75 -27 -111 -28 -216 -1
-123 -1 -126 28 -163 37 -50 85 -69 156 -64 72 5 130 34 216 107 l69 59 5 -56
c9 -93 43 -132 115 -132 52 0 99 37 164 131 l49 69 11 -44 c21 -86 111 -125
212 -92 28 10 52 16 53 14 2 -2 13 -18 25 -36 41 -59 110 -78 175 -47 18 9 56
40 85 69 l54 54 37 -39 c32 -34 43 -39 81 -39 53 0 121 39 165 94 l28 35 16
-41 c20 -53 56 -80 119 -86 72 -7 129 24 229 124 l82 83 -6 -82 c-6 -74 -5
-84 14 -100 16 -15 24 -16 41 -7 16 8 21 20 21 53 0 99 122 408 183 465 l25
24 19 -28 c16 -25 18 -52 18 -244 l0 -215 27 -3 c24 -3 30 2 45 40 63 157 193
378 224 378 19 0 20 -51 4 -170 -29 -208 -16 -273 65 -327 47 -32 92 -44 197
-50 94 -6 123 2 123 33 0 30 -31 44 -95 44 -96 0 -164 18 -198 52 l-29 29 6
97 c19 276 19 321 2 347 -49 75 -147 18 -247 -145 l-34 -55 -6 80 c-8 96 -30
156 -72 191 -40 34 -78 27 -130 -24 -27 -27 -47 -37 -69 -37 -30 0 -34 -6 -88
-110 -65 -128 -106 -190 -170 -259 -113 -122 -230 -144 -230 -44 0 62 45 197
96 287 58 103 69 155 35 166 -10 3 -25 3 -33 0 -20 -8 -74 -100 -108 -184 -36
-89 -72 -150 -128 -223 -73 -95 -136 -130 -170 -96 -19 19 -14 80 9 113 11 17
42 74 69 127 73 147 80 268 15 268 -33 0 -53 -24 -93 -110 -36 -76 -82 -227
-82 -266 0 -13 -34 -57 -88 -114 -81 -84 -91 -91 -122 -88 -26 2 -38 11 -53
36 l-19 32 58 63 c108 115 250 411 328 681 51 176 62 252 46 301 -19 58 -76
72 -137 35z m64 -117 c-8 -71 -74 -298 -122 -418 -45 -110 -135 -291 -183
-364 -42 -66 -52 -52 -27 36 29 106 177 547 208 623 39 96 92 180 113 180 14
0 16 -8 11 -57z"/>
<path d="M2934 1175 c-17 -43 29 -92 61 -65 18 15 19 52 3 68 -17 17 -57 15
-64 -3z"/>
</g>
</svg>
