<?xml version="1.0" standalone="no"?>
<!DOCTYPE svg PUBLIC "-//W3C//DTD SVG 20010904//EN"
 "http://www.w3.org/TR/2001/REC-SVG-20010904/DTD/svg10.dtd">
<svg version="1.0" xmlns="http://www.w3.org/2000/svg"
 width="459.000000pt" height="286.000000pt" viewBox="0 0 459.000000 286.000000"
 preserveAspectRatio="xMidYMid meet">

<g transform="translate(0.000000,286.000000) scale(0.100000,-0.100000)"
fill="#000000" stroke="none">
<path d="M1131 2829 c-293 -33 -637 -155 -812 -288 -181 -138 -295 -325 -249
-410 14 -27 74 -54 100 -46 38 12 32 67 -10 80 -26 8 -25 19 9 92 59 123 252
277 442 351 259 101 396 132 616 139 144 5 168 3 230 -15 122 -38 208 -103
254 -194 65 -127 62 -295 -7 -435 -66 -133 -181 -237 -359 -323 -224 -108
-483 -141 -574 -71 -22 17 -24 23 -18 77 17 171 58 489 69 529 12 43 11 48 -7
61 -23 17 -27 17 -48 2 -23 -18 -43 -108 -62 -278 -24 -227 -25 -230 -45 -230
-43 0 -49 -60 -14 -136 14 -29 13 -56 -6 -260 -72 -777 -72 -774 -19 -774 20
0 54 43 46 57 -8 12 51 718 69 841 l5 32 32 -17 c51 -28 265 -25 377 5 164 45
357 142 465 235 180 156 262 395 210 615 -40 170 -162 290 -355 346 -69 21
-229 28 -339 15z"/>
<path d="M3720 2098 c-64 -68 -261 -406 -393 -673 -121 -246 -171 -323 -283
-437 -79 -79 -111 -96 -150 -76 -50 24 -65 57 -66 142 0 43 2 79 4 81 2 2 23
-1 46 -7 98 -25 191 21 236 115 32 68 56 201 57 324 1 80 -1 99 -18 121 -84
113 -299 -43 -354 -257 -10 -42 -17 -51 -35 -51 -49 0 -67 -72 -35 -144 18
-41 20 -60 15 -134 -10 -135 21 -214 101 -259 84 -48 157 -21 271 100 99 104
175 222 271 417 72 147 216 415 233 433 4 5 -5 -38 -21 -95 -83 -296 -144
-607 -151 -772 -3 -66 0 -80 15 -90 23 -15 50 3 59 40 3 16 11 81 18 144 17
178 96 535 121 551 17 11 199 12 199 2 0 -5 -16 -77 -35 -162 -63 -284 -70
-433 -22 -528 36 -71 71 -96 122 -90 33 5 50 16 96 65 31 32 84 101 117 151
l62 92 0 -50 c0 -103 53 -171 106 -136 25 16 41 56 29 75 -4 6 -18 16 -32 21
-24 9 -25 11 -18 72 10 83 46 220 90 342 20 55 39 117 42 137 5 34 2 38 -21
44 -16 4 -32 1 -42 -7 -8 -7 -69 -122 -134 -256 -121 -249 -177 -341 -258
-425 -43 -45 -47 -47 -64 -31 -32 29 -50 115 -43 201 8 93 48 308 77 415 l21
77 81 0 c100 0 151 14 172 45 18 28 11 62 -14 67 -9 3 -33 -4 -52 -14 -38 -20
-160 -26 -160 -8 0 20 68 186 115 284 39 79 45 99 35 111 -17 20 -53 19 -73
-2 -21 -24 -102 -208 -137 -313 l-29 -85 -106 -3 -107 -3 7 33 c4 18 32 105
61 194 30 88 54 172 54 185 0 50 -44 65 -80 27z m-630 -520 c0 -93 -27 -252
-50 -297 -11 -22 -30 -47 -42 -55 -27 -19 -117 -21 -141 -3 -17 11 -17 17 -3
84 22 101 52 188 83 234 32 48 99 99 130 99 22 0 23 -4 23 -62z"/>
<path d="M4466 1854 c-21 -20 -20 -37 2 -57 34 -31 92 -14 92 28 0 41 -63 61
-94 29z"/>
<path d="M2073 1661 c-112 -72 -171 -147 -236 -301 -38 -90 -61 -188 -72 -307
-13 -141 18 -203 102 -203 58 0 109 27 188 102 123 114 181 288 209 619 4 54
3 57 -35 92 -50 48 -79 48 -156 -2z m90 -77 c21 -8 21 -27 1 -161 -16 -111
-54 -255 -80 -306 -37 -71 -167 -187 -211 -187 -22 0 -23 3 -23 79 0 150 44
308 122 438 35 59 142 158 162 148 6 -3 19 -8 29 -11z"/>
<path d="M1364 1655 c-13 -20 -18 -58 -21 -173 -4 -104 -10 -165 -24 -210 -28
-93 -59 -289 -59 -369 0 -79 13 -100 56 -89 51 13 89 154 100 376 6 125 9 140
40 206 59 124 123 163 304 184 87 10 110 21 110 51 0 34 -40 43 -135 30 -132
-18 -205 -45 -260 -93 l-48 -43 6 64 c7 68 -1 91 -34 91 -10 0 -26 -11 -35
-25z"/>
<path d="M2514 1611 c-164 -124 -265 -312 -268 -499 -1 -82 -1 -84 32 -113 18
-16 43 -29 55 -29 46 0 135 71 189 150 l17 25 0 -25 c1 -39 -36 -271 -70 -435
-58 -285 -115 -412 -221 -496 -52 -40 -116 -64 -148 -54 -31 10 -50 76 -50
179 0 111 40 286 90 395 38 81 37 115 -2 119 -22 3 -31 -4 -51 -40 -66 -114
-119 -325 -119 -475 0 -127 19 -189 69 -234 33 -29 41 -31 92 -27 75 5 139 39
211 111 131 131 194 334 276 886 19 130 48 300 65 379 24 113 28 146 18 158
-6 8 -19 29 -28 47 -27 54 -63 49 -157 -22z m61 -184 c-52 -142 -110 -249
-168 -313 -63 -69 -77 -70 -77 -3 0 147 103 344 224 429 39 27 41 27 50 9 7
-14 -1 -47 -29 -122z"/>
</g>
</svg>
