<?xml version="1.0" standalone="no"?>
<!DOCTYPE svg PUBLIC "-//W3C//DTD SVG 20010904//EN"
 "http://www.w3.org/TR/2001/REC-SVG-20010904/DTD/svg10.dtd">
<svg version="1.0" xmlns="http://www.w3.org/2000/svg"
 width="619.000000pt" height="194.000000pt" viewBox="0 0 619.000000 194.000000"
 preserveAspectRatio="xMidYMid meet">

<g transform="translate(0.000000,194.000000) scale(0.100000,-0.100000)"
fill="#000000" stroke="none">
<path d="M6053 1868 c-14 -19 -68 -163 -93 -248 -12 -41 -57 -183 -100 -315
-43 -132 -108 -337 -144 -455 -116 -386 -124 -435 -68 -428 24 3 29 10 45 73
58 225 324 1077 405 1295 14 38 17 60 11 72 -11 21 -42 24 -56 6z"/>
<path d="M892 1765 c-77 -34 -182 -114 -297 -228 -98 -97 -142 -150 -216 -262
-203 -307 -314 -622 -326 -920 -5 -119 -4 -135 15 -172 27 -51 73 -90 117 -99
69 -13 167 0 226 29 74 36 203 149 259 227 l45 62 6 -86 c7 -96 31 -145 91
-181 52 -31 148 -27 218 9 118 62 201 145 266 270 46 86 64 153 64 236 0 112
-47 159 -171 168 -79 5 -186 -23 -262 -69 -26 -16 -55 -29 -65 -29 -29 0 -57
-26 -77 -72 -35 -79 -201 -303 -276 -371 -94 -86 -155 -118 -233 -124 -126
-11 -163 38 -152 199 19 295 132 605 324 890 153 227 402 449 520 465 60 8
125 -25 151 -76 38 -73 22 -189 -42 -300 -60 -104 -223 -264 -364 -357 -62
-41 -113 -78 -113 -82 0 -5 6 -17 14 -28 19 -26 43 -16 171 68 66 44 132 99
195 164 113 116 152 171 197 274 29 66 33 86 33 160 0 125 -40 196 -132 234
-46 20 -142 20 -186 1z m375 -1051 c24 -24 25 -31 20 -85 -18 -167 -129 -331
-279 -412 -59 -32 -130 -36 -167 -11 -44 31 -61 108 -45 206 6 33 10 37 29 32
31 -8 42 12 47 88 7 79 29 116 94 154 65 38 120 53 202 53 66 1 76 -2 99 -25z"/>
<path d="M3446 1347 c-21 -31 -98 -198 -131 -284 -27 -69 -30 -73 -64 -78 -94
-15 -179 -37 -199 -51 -27 -19 -29 -60 -4 -73 14 -7 25 -6 42 6 23 16 150 46
159 37 2 -2 -37 -113 -87 -246 -92 -247 -142 -420 -142 -489 0 -38 26 -79 51
-79 18 0 69 57 69 78 0 11 -9 26 -21 34 l-21 14 26 98 c26 98 202 582 218 600
8 9 179 37 187 30 5 -4 -34 -118 -114 -334 -96 -257 -113 -371 -65 -415 10 -9
27 -15 37 -13 16 3 18 12 15 78 -4 78 13 142 84 325 14 39 50 138 79 220 l53
150 49 6 c91 12 114 29 92 70 -9 17 -17 19 -61 13 l-50 -7 8 34 c14 59 11 110
-8 123 -24 15 -52 -3 -56 -35 -2 -27 -22 -129 -25 -130 -22 -8 -187 -22 -187
-16 0 25 101 252 132 296 13 18 14 29 7 43 -14 25 -55 23 -73 -5z"/>
<path d="M2185 1176 c-26 -26 -70 -156 -105 -308 l-22 -98 -37 -6 c-94 -15
-120 -39 -84 -76 21 -20 26 -21 59 -9 19 7 37 11 39 9 2 -1 -10 -66 -26 -143
-39 -192 -47 -309 -24 -358 39 -82 133 -109 221 -64 28 14 73 44 102 66 57 46
62 48 62 26 0 -25 30 -65 61 -81 42 -21 124 -18 176 8 24 12 70 46 103 75 32
29 60 53 62 53 1 0 4 -19 5 -42 1 -32 8 -48 28 -65 32 -28 45 -29 77 -3 35 27
54 75 38 95 -15 18 -42 19 -58 3 -9 -9 -12 -8 -12 7 0 24 52 276 74 360 9 32
16 80 16 105 0 42 -4 48 -41 77 -94 73 -217 44 -346 -80 -49 -47 -73 -82 -113
-161 -50 -102 -62 -143 -75 -250 -5 -43 -10 -55 -18 -47 -18 18 -42 13 -83
-20 -53 -43 -134 -80 -159 -73 -46 14 -55 33 -55 113 0 67 58 402 72 416 2 3
72 23 153 46 168 46 205 62 205 88 0 40 -24 44 -112 17 -140 -42 -222 -65
-224 -63 -6 5 27 141 55 228 20 61 38 98 51 107 25 16 26 48 1 62 -29 15 -39
13 -66 -14z m660 -422 c10 -11 14 -26 11 -43 -3 -14 -10 -55 -16 -91 -17 -99
-96 -257 -166 -330 -86 -90 -161 -120 -213 -83 -23 15 -24 20 -18 102 12 182
118 364 253 435 57 29 125 34 149 10z"/>
<path d="M5387 922 c-9 -10 -17 -28 -17 -39 0 -31 39 -75 64 -71 19 3 21 9 21
63 0 57 -1 60 -26 63 -15 2 -32 -5 -42 -16z"/>
<path d="M1493 818 c-27 -36 -47 -118 -48 -203 -1 -49 -8 -103 -14 -119 -16
-41 -51 -247 -51 -305 0 -26 7 -56 16 -69 51 -73 90 30 113 295 7 82 15 112
37 153 35 65 92 116 143 130 57 15 78 2 87 -57 11 -73 -3 -241 -26 -323 -41
-146 -45 -167 -31 -184 28 -33 101 -5 85 33 -10 24 -8 36 21 141 23 80 27 116
28 230 2 148 -7 178 -59 219 -50 40 -156 20 -232 -43 -17 -16 -32 -26 -32 -24
0 1 6 26 14 54 15 56 7 84 -23 84 -10 0 -23 -6 -28 -12z"/>
<path d="M3835 806 c-129 -60 -217 -218 -259 -465 -20 -116 -20 -162 -2 -205
26 -62 93 -84 154 -52 36 19 101 88 146 155 l36 53 0 -55 c0 -45 5 -61 26 -86
22 -26 33 -31 72 -31 45 0 49 3 125 81 l78 80 -8 -38 c-4 -21 -8 -56 -8 -78 0
-38 2 -40 29 -40 27 0 31 5 47 55 70 230 209 510 254 510 41 0 26 -222 -31
-442 -16 -63 -12 -84 19 -94 28 -9 47 17 137 177 109 196 210 329 248 329 27
0 7 -99 -46 -237 -63 -160 -68 -222 -26 -272 23 -27 32 -31 79 -31 51 0 55 2
132 69 l79 68 13 -27 c15 -36 60 -55 98 -43 38 13 95 88 91 122 -2 19 -9 27
-29 29 -20 2 -30 -5 -50 -34 -36 -56 -49 -55 -49 4 0 34 8 64 26 98 63 115 86
169 97 219 12 61 1 85 -39 85 -35 0 -75 -68 -114 -193 -45 -142 -45 -142 -142
-240 -74 -76 -90 -88 -115 -85 -46 5 -42 45 21 211 60 158 73 223 53 277 -18
51 -56 67 -112 45 -53 -20 -108 -78 -182 -193 -31 -48 -59 -90 -62 -94 -4 -4
-5 50 -3 120 3 108 0 132 -15 162 -34 66 -102 65 -165 -1 -30 -32 -38 -36 -38
-21 0 25 -24 45 -47 40 -17 -3 -30 -31 -52 -113 -16 -60 -136 -270 -198 -348
-84 -105 -131 -114 -117 -22 14 99 97 412 113 428 36 36 -24 116 -102 136 -67
16 -106 14 -162 -13z m175 -72 c14 -14 -23 -111 -105 -280 -106 -216 -208
-339 -251 -303 -34 28 -4 244 56 398 25 65 44 96 81 133 27 27 59 53 71 58 28
12 135 8 148 -6z"/>
<path d="M5632 238 c-7 -7 -12 -20 -12 -29 0 -43 72 -53 78 -11 6 42 -37 69
-66 40z"/>
</g>
</svg>
