<?xml version="1.0" standalone="no"?>
<!DOCTYPE svg PUBLIC "-//W3C//DTD SVG 20010904//EN"
 "http://www.w3.org/TR/2001/REC-SVG-20010904/DTD/svg10.dtd">
<svg version="1.0" xmlns="http://www.w3.org/2000/svg"
 width="1280.000000pt" height="964.000000pt" viewBox="0 0 1280.000000 964.000000"
 preserveAspectRatio="xMidYMid meet">

<g transform="translate(0.000000,964.000000) scale(0.100000,-0.100000)"
fill="#000000" stroke="none">
<path d="M6369 9054 c-25 -29 -28 -46 -11 -79 16 -33 287 -314 422 -439 80
-73 320 -242 420 -295 52 -28 99 -82 238 -278 181 -255 240 -361 337 -607 121
-306 206 -705 289 -1356 45 -358 49 -416 43 -728 -5 -298 -10 -363 -48 -632
-73 -517 -222 -973 -434 -1325 -23 -38 -73 -122 -110 -185 -81 -138 -142 -219
-336 -451 -176 -209 -530 -548 -724 -692 -91 -67 -395 -251 -560 -338 -395
-208 -964 -310 -1566 -281 -347 17 -602 56 -864 132 -184 54 -295 102 -559
241 -477 252 -501 268 -849 593 -242 226 -446 493 -719 946 -129 214 -134 224
-246 487 -135 315 -275 757 -347 1088 -62 291 -85 500 -85 788 0 584 68 884
310 1367 135 269 347 567 527 740 395 381 586 503 1038 669 134 49 228 76 375
108 72 15 131 18 390 17 329 0 422 -10 651 -69 294 -75 766 -270 936 -386 169
-115 414 -308 498 -393 87 -88 237 -290 334 -449 91 -148 200 -428 240 -612
44 -201 51 -519 15 -695 -34 -165 -105 -330 -194 -450 -72 -97 -323 -322 -469
-420 -186 -125 -641 -283 -981 -342 -116 -20 -169 -23 -380 -23 -324 0 -442
19 -653 101 -188 74 -255 122 -282 204 -18 54 -47 73 -73 47 -13 -14 -13 -21
2 -68 49 -148 159 -220 520 -340 484 -162 1011 -139 1565 67 285 107 464 228
776 525 118 114 163 176 240 334 123 255 165 459 165 815 0 262 -40 459 -148
730 -75 189 -111 253 -285 505 -155 224 -212 283 -492 507 -315 252 -448 328
-830 473 -288 109 -495 168 -705 200 -140 22 -654 32 -772 16 -289 -42 -610
-148 -941 -312 -204 -101 -292 -161 -522 -354 -381 -319 -626 -634 -855 -1100
-128 -260 -160 -343 -214 -547 -77 -291 -99 -493 -100 -883 -1 -227 3 -320 17
-430 64 -480 229 -1083 427 -1555 112 -268 130 -304 281 -555 159 -265 198
-323 352 -530 197 -262 284 -356 597 -640 148 -134 318 -251 520 -358 47 -24
157 -83 245 -130 192 -103 312 -156 464 -208 508 -174 1222 -235 1791 -153
543 78 813 169 1235 419 347 205 430 267 740 555 221 205 292 280 457 480 176
214 227 287 357 505 179 299 220 381 323 650 67 173 107 311 162 556 94 426
129 736 129 1154 0 270 -2 320 -27 500 -91 681 -216 1219 -362 1566 -39 95
-150 314 -189 375 -19 30 -31 54 -27 54 4 0 44 -15 89 -34 271 -115 1026 -339
1363 -406 310 -61 756 -97 1095 -87 300 9 547 49 795 129 181 59 428 171 557
254 30 19 57 34 59 32 2 -2 -3 -40 -11 -83 -70 -402 -110 -966 -121 -1680 -7
-478 11 -2511 26 -2925 20 -537 53 -962 120 -1520 23 -192 34 -254 90 -525 58
-278 74 -428 57 -527 -7 -42 -6 -48 14 -58 60 -33 114 84 130 284 22 266 22
490 0 786 -66 909 -98 1760 -111 2990 -21 1998 -13 2462 56 3225 l26 280 34
58 c46 79 120 250 141 328 12 44 18 101 18 182 l0 119 -33 29 c-55 49 -114 34
-151 -39 -22 -44 -160 -452 -191 -567 -34 -124 -29 -118 -142 -173 -259 -127
-673 -250 -988 -294 -269 -37 -763 -25 -1145 28 -271 37 -496 90 -1000 235
-526 150 -624 186 -950 351 -260 131 -265 134 -575 408 -128 112 -197 161
-345 244 -247 139 -340 171 -376 130z m5795 -521 c-3 -38 -12 -91 -20 -119
-16 -58 -44 -128 -49 -123 -9 9 16 168 36 228 35 106 42 109 33 14z"/>
</g>
</svg>
